<svg version="1" xmlns="http://www.w3.org/2000/svg" width="133.33333" height="133.33333" viewBox="0 0 100 100"><path d="M43.3 4c-2.7 1.1-2.6.8-.9 8.2 1.5 6.3 1.6 6.3-3.1 7.2-3.1.7-3.1.7-4.4-4.8-1.6-7.3-2-7.7-5.7-7-3.7.7-3.7 1-1.7 8.4.8 3 1.1 5.7.7 6.1-.4.4-4.1 1.4-8.2 2.4s-7.6 1.9-7.7 1.9c-.1.1.2 1.9.8 3.9l1 3.6 4.7-.6c3.6-.4 5.1-.1 6 1 1.9 2.2 10.4 36.4 10 40-.3 2.7-.8 3.3-4 4-3.6.8-3.8 1.1-3.8 4.7 0 2.2.4 4.1.9 4.4.5.4 3.8-.1 7.3-.9 9.5-2.2 9.5-2.2 10.9 3.9 1.6 7.3 2 7.7 5.7 7 3.7-.7 3.7-1 1.7-8.4-.8-3-1.1-5.8-.7-6.1.4-.4 2.1-1 3.9-1.4 3.1-.6 3.1-.6 4.4 4.9 1.6 7.5 2.1 8 6.2 7.2l3.5-.7-1.4-4.6c-2.5-8.4-2.1-9.5 4.4-12.1C83.7 72.3 88 66.9 88 58.5c-.1-9.4-4.5-15.2-13.1-16.9l-2.6-.6 2.4-4.7c2.6-5.3 2.4-8.6-.8-13.9-2.7-4.5-7.4-6.4-15.7-6.4-6.8 0-7-.1-7.6-2.8-2.7-11-2.7-11-7.3-9.2zm14 23.1c2.6 1.2 4.7 4.7 4.7 7.8 0 4.3-7.2 9.4-16.1 11.5-2.6.6-2.7.4-4.8-8.1-1.2-4.7-1.8-8.9-1.4-9.4 1-.9 8.8-2.6 12.5-2.8 1.5-.1 3.8.4 5.1 1zm12.8 26.8c2.9 3.5 2.4 8.7-.9 12.1-2.9 2.8-15.8 7.6-18.4 6.8-1.2-.4-6.1-17.8-5.3-18.7 1.3-1.3 11.9-3 16.9-2.7 4.7.2 6.3.7 7.7 2.5z"/></svg>